<svg width="40" height="40" viewBox="0 0 40 40" fill="none" xmlns="http://www.w3.org/2000/svg">
<g clip-path="url(#clip0_805_112)">
<path d="M33.3333 30C33.7581 30.0004 34.1667 30.1631 34.4756 30.4547C34.7845 30.7463 34.9704 31.1449 34.9953 31.569C35.0202 31.993 34.8822 32.4106 34.6096 32.7363C34.3369 33.0621 33.9502 33.2715 33.5283 33.3216L33.3333 33.3333H6.66667C6.24187 33.3328 5.83328 33.1702 5.52439 32.8785C5.21549 32.5869 5.02961 32.1884 5.00471 31.7643C4.97982 31.3402 5.11779 30.9227 5.39044 30.5969C5.66309 30.2712 6.04984 30.0618 6.47167 30.0116L6.66667 30H33.3333ZM33.3333 18.3333C33.7754 18.3333 34.1993 18.5089 34.5118 18.8214C34.8244 19.134 35 19.5579 35 20C35 20.442 34.8244 20.8659 34.5118 21.1785C34.1993 21.491 33.7754 21.6666 33.3333 21.6666H6.66667C6.22464 21.6666 5.80072 21.491 5.48816 21.1785C5.17559 20.8659 5 20.442 5 20C5 19.5579 5.17559 19.134 5.48816 18.8214C5.80072 18.5089 6.22464 18.3333 6.66667 18.3333H33.3333ZM33.3333 6.66663C33.7754 6.66663 34.1993 6.84222 34.5118 7.15478C34.8244 7.46734 35 7.89127 35 8.33329C35 8.77532 34.8244 9.19924 34.5118 9.5118C34.1993 9.82436 33.7754 9.99996 33.3333 9.99996H6.66667C6.22464 9.99996 5.80072 9.82436 5.48816 9.5118C5.17559 9.19924 5 8.77532 5 8.33329C5 7.89127 5.17559 7.46734 5.48816 7.15478C5.80072 6.84222 6.22464 6.66663 6.66667 6.66663H33.3333Z" fill="#D5D5D5"/>
</g>
<defs>
<clipPath id="clip0_805_112">
<rect width="40" height="40" fill="white"/>
</clipPath>
</defs>
</svg>
