<?xml version="1.0" encoding="UTF-8" standalone="no"?>
<svg
   width="20"
   height="20"
   viewBox="0 0 20 20"
   fill="none"
   version="1.1"
   id="svg14"
   sodipodi:docname="chip-blacksvg.svg"
   inkscape:version="1.3.2 (091e20e, 2023-11-25, custom)"
   xmlns:inkscape="http://www.inkscape.org/namespaces/inkscape"
   xmlns:sodipodi="http://sodipodi.sourceforge.net/DTD/sodipodi-0.dtd"
   xmlns="http://www.w3.org/2000/svg"
   xmlns:svg="http://www.w3.org/2000/svg">
  <sodipodi:namedview
     id="namedview14"
     pagecolor="#ffffff"
     bordercolor="#000000"
     borderopacity="0.25"
     inkscape:showpageshadow="2"
     inkscape:pageopacity="0.0"
     inkscape:pagecheckerboard="0"
     inkscape:deskcolor="#d1d1d1"
     inkscape:zoom="38.85"
     inkscape:cx="9.98713"
     inkscape:cy="10"
     inkscape:window-width="1920"
     inkscape:window-height="991"
     inkscape:window-x="-9"
     inkscape:window-y="-9"
     inkscape:window-maximized="1"
     inkscape:current-layer="svg14" />
  <g
     clip-path="url(#clip0_1213_1014)"
     id="g14">
    <path
       d="M15.833 3.33337H4.16634C3.94533 3.33337 3.73337 3.42117 3.57709 3.57745C3.42081 3.73373 3.33301 3.94569 3.33301 4.16671V15.8334C3.33301 16.0544 3.42081 16.2663 3.57709 16.4226C3.73337 16.5789 3.94533 16.6667 4.16634 16.6667H15.833C16.054 16.6667 16.266 16.5789 16.4223 16.4226C16.5785 16.2663 16.6663 16.0544 16.6663 15.8334V4.16671C16.6663 3.94569 16.5785 3.73373 16.4223 3.57745C16.266 3.42117 16.054 3.33337 15.833 3.33337Z"
       stroke="#FAFAFA"
       stroke-width="1.8"
       stroke-linejoin="round"
       id="path1" />
    <path
       d="M12.5 7.5H7.5V12.5H12.5V7.5Z"
       stroke="#FAFAFA"
       stroke-width="1.8"
       stroke-linejoin="round"
       id="path2" />
    <path
       d="M6.21191 0.833374V3.33337"
       stroke="#FAFAFA"
       stroke-width="1.8"
       stroke-linecap="round"
       stroke-linejoin="round"
       id="path3" />
    <path
       d="M6.21191 16.6667V19.1667"
       stroke="#FAFAFA"
       stroke-width="1.8"
       stroke-linecap="round"
       stroke-linejoin="round"
       id="path4" />
    <path
       d="M10 0.833374V3.33337"
       stroke="#FAFAFA"
       stroke-width="1.8"
       stroke-linecap="round"
       stroke-linejoin="round"
       id="path5" />
    <path
       d="M10 16.6667V19.1667"
       stroke="#FAFAFA"
       stroke-width="1.8"
       stroke-linecap="round"
       stroke-linejoin="round"
       id="path6" />
    <path
       d="M13.7871 0.833374V3.33337"
       stroke="#FAFAFA"
       stroke-width="1.8"
       stroke-linecap="round"
       stroke-linejoin="round"
       id="path7" />
    <path
       d="M13.7871 16.6667V19.1667"
       stroke="#FAFAFA"
       stroke-width="1.8"
       stroke-linecap="round"
       stroke-linejoin="round"
       id="path8" />
    <path
       d="M0.833008 6.21252H3.33301"
       stroke="#FAFAFA"
       stroke-width="1.8"
       stroke-linecap="round"
       stroke-linejoin="round"
       id="path9" />
    <path
       d="M16.666 6.21252H19.166"
       stroke="#FAFAFA"
       stroke-width="1.8"
       stroke-linecap="round"
       stroke-linejoin="round"
       id="path10" />
    <path
       d="M0.833008 10H3.33301"
       stroke="#FAFAFA"
       stroke-width="1.8"
       stroke-linecap="round"
       stroke-linejoin="round"
       id="path11" />
    <path
       d="M16.666 10H19.166"
       stroke="#FAFAFA"
       stroke-width="1.8"
       stroke-linecap="round"
       stroke-linejoin="round"
       id="path12" />
    <path
       d="M0.833008 13.7876H3.33301"
       stroke="#FAFAFA"
       stroke-width="1.8"
       stroke-linecap="round"
       stroke-linejoin="round"
       id="path13" />
    <path
       d="M16.666 13.7876H19.166"
       stroke="#FAFAFA"
       stroke-width="1.8"
       stroke-linecap="round"
       stroke-linejoin="round"
       id="path14" />
  </g>
  <defs
     id="defs14">
    <clipPath
       id="clip0_1213_1014">
      <rect
         width="20"
         height="20"
         fill="white"
         id="rect14" />
    </clipPath>
  </defs>
  <path
     style="fill:#1a1a1a;stroke-width:0.02574"
     d="M 5.7252541,19.914237 C 5.5796924,19.821924 5.4794834,19.703509 5.3948561,19.52381 l -0.066671,-0.141571 -0.00765,-0.904712 -0.00765,-0.904712 -0.7259398,-0.0111 C 3.8861838,17.551006 3.8538613,17.54826 3.6550837,17.482533 3.3753454,17.390037 3.1509297,17.252865 2.9490324,17.050968 2.7471349,16.84907 2.6099634,16.624655 2.5174669,16.344916 2.451743,16.146147 2.4489934,16.113797 2.4382852,15.413329 l -0.011093,-0.725666 -0.9047157,-0.0079 -0.90471558,-0.0079 -0.14157014,-0.06667 C 0.29649138,14.520517 0.17807563,14.420308 0.0857631,14.274746 0.01438825,14.162199 0.01287001,14.152049 0.01287001,13.787433 c 0,-0.372353 4.09e-6,-0.372379 0.0796334,-0.496471 0.04379837,-0.06825 0.13522259,-0.164904 0.2031649,-0.214778 0.23896605,-0.175417 0.25069022,-0.177187 1.24229819,-0.187536 l 0.8944659,-0.0093 v -0.987685 -0.987686 l -0.8944659,-0.0081 C 0.69401683,10.888109 0.6359112,10.884544 0.50911792,10.832684 0.33395732,10.761039 0.19063665,10.645653 0.09217888,10.497009 L 0.01287001,10.377274 V 10 9.6227256 L 0.09217888,9.502991 C 0.19063665,9.354347 0.33395732,9.2389606 0.50911792,9.1673163 0.6359112,9.1154556 0.69401683,9.1118911 1.5379665,9.1042051 l 0.8944659,-0.00815 V 8.1083735 7.1206878 L 1.5379665,7.1113524 C 0.54635853,7.1010028 0.53463436,7.0992332 0.29566831,6.923816 0.227726,6.8739416 0.13630178,6.7772914 0.09250341,6.7090376 0.0128741,6.5849459 0.01287001,6.5849205 0.01287001,6.2125671 c 0,-0.3646165 0.0015182,-0.3747666 0.07289309,-0.487313 0.09231253,-0.1455617 0.21072828,-0.2457707 0.39042738,-0.330398 l 0.14157014,-0.066671 0.90471558,-0.00792 0.9047157,-0.00792 0.011093,-0.725667 C 2.4489934,3.8862028 2.451743,3.8538533 2.5174669,3.6550837 2.6099634,3.3753454 2.7471349,3.1509297 2.9490324,2.9490324 3.1509297,2.7471349 3.3753454,2.6099634 3.6550837,2.5174669 3.8538613,2.4517403 3.8861838,2.4489937 4.5869436,2.438282 l 0.7259398,-0.011097 0.00765,-0.9047124 0.00765,-0.90471238 0.066671,-0.14157014 C 5.4794834,0.29649138 5.5796924,0.17807563 5.7252541,0.0857631 5.8379555,0.01429 5.8475318,0.01287001 6.2168427,0.01287001 c 0.3763025,0 0.376756,7.159e-5 0.4944559,0.07803268 0.1404144,0.09300676 0.2301701,0.20527571 0.3237588,0.40496696 l 0.06919,0.14763099 0.00822,0.89446586 0.00822,0.8944659 h 0.9876857 0.9876854 l 0.00815,-0.8944659 C 9.1118911,0.69401683 9.1154556,0.6359112 9.1673163,0.50911792 9.2389606,0.33395732 9.354347,0.19063665 9.502991,0.09217888 L 9.6227256,0.01287001 H 10 10.377274 l 0.119735,0.07930887 c 0.148644,0.09845777 0.26403,0.24177844 0.335675,0.41693904 0.05186,0.12679328 0.05542,0.18489891 0.06311,1.02884858 l 0.0081,0.8944659 h 0.987686 0.987685 l 0.0093,-0.8944659 c 0.01035,-0.99160797 0.01212,-1.00333214 0.187536,-1.24229819 0.04987,-0.0679423 0.146525,-0.15936653 0.214778,-0.2031649 0.124092,-0.07962931 0.124118,-0.0796334 0.496471,-0.0796334 0.364616,0 0.374766,0.0015182 0.487313,0.07289309 0.145562,0.09231253 0.245771,0.21072828 0.330398,0.39042738 l 0.06667,0.14157014 0.0079,0.90471558 0.0079,0.9047157 0.725666,0.011093 c 0.700468,0.010708 0.732818,0.013458 0.931587,0.079182 0.389371,0.128747 0.72422,0.382931 0.935901,0.7104425 0.235005,0.3635979 0.284635,0.6173822 0.285852,1.4617078 l 8.99e-4,0.6226932 0.907335,0.00794 0.907336,0.00794 0.141571,0.066671 c 0.179699,0.084627 0.298114,0.1848363 0.390427,0.330398 0.07137,0.1125464 0.07289,0.1226965 0.07289,0.487313 0,0.3723534 -4e-6,0.3723788 -0.07963,0.4964705 -0.08751,0.1363712 -0.256068,0.2702113 -0.435168,0.3455341 -0.104581,0.043983 -0.202691,0.049559 -1.010296,0.057415 l -0.894465,0.0087 v 0.9876857 0.9876854 l 0.894465,0.00815 c 0.84395,0.00769 0.902056,0.011251 1.028849,0.063111 0.175161,0.071644 0.318481,0.1870307 0.416939,0.3356747 l 0.07931,0.1197346 V 10 10.377274 l -0.07931,0.119735 c -0.09846,0.148644 -0.241778,0.26403 -0.416939,0.335675 -0.126793,0.05186 -0.184899,0.05542 -1.028849,0.06311 l -0.894465,0.0081 v 0.987686 0.987685 l 0.894465,0.0087 c 0.807605,0.0079 0.905715,0.01343 1.010296,0.05741 0.1791,0.07532 0.347658,0.209163 0.435168,0.345534 0.07963,0.124092 0.07963,0.124118 0.07963,0.496471 0,0.364616 -0.0015,0.374766 -0.07289,0.487313 -0.09231,0.145562 -0.210728,0.245771 -0.390427,0.330398 l -0.141571,0.06667 -0.904684,0.0079 -0.904684,0.0079 -0.01186,0.712797 c -0.01283,0.771093 -0.02721,0.870073 -0.170897,1.176118 -0.207215,0.441362 -0.63245,0.793802 -1.122419,0.930273 -0.121493,0.03384 -0.306503,0.04541 -0.867236,0.05426 l -0.712795,0.01124 -0.0079,0.904946 -0.0079,0.904946 -0.06667,0.141571 c -0.08463,0.179699 -0.184836,0.298114 -0.330398,0.390427 -0.112547,0.07137 -0.122697,0.07289 -0.487313,0.07289 -0.372353,0 -0.372379,-4e-6 -0.496471,-0.07963 -0.06825,-0.0438 -0.164904,-0.135223 -0.214778,-0.203165 -0.175417,-0.238966 -0.177187,-0.250691 -0.187536,-1.242299 l -0.0093,-0.894465 h -0.987685 -0.987686 l -0.0081,0.894465 c -0.0077,0.84395 -0.01125,0.902056 -0.06311,1.028849 -0.07165,0.175161 -0.187031,0.318481 -0.335675,0.416939 l -0.119735,0.07931 H 10 9.6227256 L 9.502991,19.907821 C 9.354347,19.809363 9.2389606,19.666043 9.1673163,19.490882 9.1154556,19.364089 9.1118911,19.305983 9.1042051,18.462033 l -0.00815,-0.894465 H 8.1083735 7.1206878 l -0.00822,0.894465 -0.00822,0.894466 -0.06919,0.147631 c -0.093589,0.199692 -0.1833444,0.311961 -0.3237588,0.404967 -0.1176999,0.07796 -0.1181534,0.07803 -0.4944559,0.07803 -0.3693109,0 -0.3788872,-0.0014 -0.491589,-0.07289 z M 15.765766,10 V 4.2342342 H 10 4.2342342 V 10 15.765766 H 10 15.765766 Z"
     id="path15" />
  <path
     style="fill:#1a1a1a;stroke-width:0.02574"
     d="M 7.2697387,13.362784 C 7.0058397,13.290964 6.8036493,13.117379 6.6821393,12.858317 L 6.6151866,12.715573 V 10 7.2844273 L 6.6830158,7.1397681 C 6.778428,6.9362828 6.9145557,6.7967409 7.1129108,6.699091 L 7.2833448,6.615187 H 10 12.716655 l 0.170434,0.083904 c 0.198355,0.09765 0.334483,0.2371918 0.429895,0.4406771 l 0.06783,0.1446592 v 2.7161137 2.716114 l -0.0839,0.170434 c -0.09765,0.198355 -0.237192,0.334483 -0.440677,0.429895 l -0.144659,0.06783 -2.664093,0.005 c -2.0570634,0.0039 -2.6908996,-0.0023 -2.7817413,-0.02702 z M 11.595882,10 V 8.4041184 H 10 8.4041184 V 10 11.595882 H 10 11.595882 Z"
     id="path16" />
</svg>
