<svg width="36" height="36" viewBox="0 0 36 36" fill="none" xmlns="http://www.w3.org/2000/svg">
<path d="M10.5 13.5L16.125 18C16.6571 18.426 17.3184 18.6581 18 18.6581C18.6816 18.6581 19.3429 18.426 19.875 18L25.5 13.5M31.5 25.5V10.5C31.5 9.70435 31.1839 8.94129 30.6213 8.37868C30.0587 7.81607 29.2956 7.5 28.5 7.5H7.5C6.70435 7.5 5.94129 7.81607 5.37868 8.37868C4.81607 8.94129 4.5 9.70435 4.5 10.5V25.5C4.5 26.2956 4.81607 27.0587 5.37868 27.6213C5.94129 28.1839 6.70435 28.5 7.5 28.5H28.5C29.2956 28.5 30.0587 28.1839 30.6213 27.6213C31.1839 27.0587 31.5 26.2956 31.5 25.5Z" stroke="#D5D5D5" stroke-width="3" stroke-linecap="round" stroke-linejoin="round"/>
</svg>
