<svg width="817" height="807" viewBox="0 0 817 807" fill="none" xmlns="http://www.w3.org/2000/svg">
<g filter="url(#filter0_dd_1179_502)">
<path fill-rule="evenodd" clip-rule="evenodd" d="M410.5 747.531C603.265 747.531 759.531 591.265 759.531 398.5C759.531 205.735 603.265 49.4688 410.5 49.4688C217.735 49.4688 61.4688 205.735 61.4688 398.5C61.4688 591.265 217.735 747.531 410.5 747.531ZM410.5 781C621.749 781 793 609.749 793 398.5C793 187.251 621.749 16 410.5 16C199.251 16 28 187.251 28 398.5C28 609.749 199.251 781 410.5 781Z" fill="#282828"/>
<path d="M383.462 127.214C383.462 125.451 384.272 123.786 385.659 122.699L406.961 105.999C409.039 104.369 411.962 104.369 414.04 105.999L435.342 122.699C436.729 123.786 437.539 125.451 437.539 127.214V668.307C437.539 670.112 436.69 671.811 435.247 672.895L413.946 688.894C411.905 690.427 409.096 690.427 407.055 688.894L385.753 672.895C384.311 671.811 383.462 670.112 383.462 668.307V127.214Z" fill="#282828"/>
<path d="M335.204 144.408C337.753 142.856 341.018 144.691 341.018 147.675L341.019 323.664C341.019 326.479 338.08 328.33 335.541 327.113L173.787 249.607C171.049 248.295 170.857 244.469 173.45 242.891L335.204 144.408Z" fill="#282828"/>
<path d="M485.66 144.408C483.111 142.856 479.846 144.691 479.846 147.675L479.844 323.664C479.844 326.479 482.783 328.33 485.322 327.113L647.077 249.607C649.815 248.295 650.006 244.469 647.413 242.891L485.66 144.408Z" fill="#282828"/>
<path d="M162.417 315.742C162.417 312.927 165.355 311.076 167.894 312.292L339.929 394.665C341.257 395.301 342.102 396.642 342.102 398.115V504.62C342.102 507.606 338.834 509.441 336.285 507.885L164.249 402.914C163.111 402.22 162.417 400.983 162.417 399.649V315.742Z" fill="#282828"/>
<path d="M162.417 462.943C162.417 459.9 165.798 458.075 168.342 459.746L340.377 572.735C341.454 573.443 342.102 574.644 342.102 575.932V632.869C342.102 635.942 338.661 637.761 336.122 636.029L164.086 518.665C163.042 517.953 162.417 516.77 162.417 515.505V462.943Z" fill="#282828"/>
<path d="M658.583 462.943C658.583 459.9 655.202 458.075 652.658 459.746L480.623 572.735C479.546 573.443 478.897 574.644 478.897 575.932V632.869C478.897 635.942 482.339 637.761 484.878 636.029L656.914 518.665C657.958 517.953 658.583 516.77 658.583 515.505V462.943Z" fill="#282828"/>
<path d="M658.113 315.742C658.113 312.927 655.175 311.076 652.636 312.292L480.6 394.665C479.272 395.301 478.427 396.642 478.427 398.115V504.62C478.427 507.606 481.696 509.441 484.245 507.885L656.28 402.914C657.419 402.22 658.113 400.983 658.113 399.649V315.742Z" fill="#282828"/>
</g>
<circle cx="759.34" cy="286.3" r="5.1" fill="#6D6D6D"/>
<circle cx="410.5" cy="424" r="5.1" fill="#6D6D6D"/>
<circle cx="243.22" cy="541.3" r="5.1" fill="#6D6D6D"/>
<circle cx="759.34" cy="286.3" r="9.5" stroke="#FAFAFA" stroke-width="1.4"/>
<circle cx="410.5" cy="424" r="9.5" stroke="#FAFAFA" stroke-width="1.4"/>
<circle cx="243.22" cy="541.3" r="9.5" stroke="#FAFAFA" stroke-width="1.4"/>
<defs>
<filter id="filter0_dd_1179_502" x="0" y="0" width="817" height="807" filterUnits="userSpaceOnUse" color-interpolation-filters="sRGB">
<feFlood flood-opacity="0" result="BackgroundImageFix"/>
<feColorMatrix in="SourceAlpha" type="matrix" values="0 0 0 0 0 0 0 0 0 0 0 0 0 0 0 0 0 0 127 0" result="hardAlpha"/>
<feOffset dx="4" dy="4"/>
<feGaussianBlur stdDeviation="10"/>
<feComposite in2="hardAlpha" operator="out"/>
<feColorMatrix type="matrix" values="0 0 0 0 0 0 0 0 0 0 0 0 0 0 0 0 0 0 0.18 0"/>
<feBlend mode="normal" in2="BackgroundImageFix" result="effect1_dropShadow_1179_502"/>
<feColorMatrix in="SourceAlpha" type="matrix" values="0 0 0 0 0 0 0 0 0 0 0 0 0 0 0 0 0 0 127 0" result="hardAlpha"/>
<feOffset dx="-8" dy="6"/>
<feGaussianBlur stdDeviation="10"/>
<feComposite in2="hardAlpha" operator="out"/>
<feColorMatrix type="matrix" values="0 0 0 0 0 0 0 0 0 0 0 0 0 0 0 0 0 0 0.19 0"/>
<feBlend mode="normal" in2="effect1_dropShadow_1179_502" result="effect2_dropShadow_1179_502"/>
<feBlend mode="normal" in="SourceGraphic" in2="effect2_dropShadow_1179_502" result="shape"/>
</filter>
</defs>
</svg>
