<svg width="36" height="36" viewBox="0 0 36 36" fill="none" xmlns="http://www.w3.org/2000/svg">
<path d="M30 18C30 21.1826 28.7357 24.2348 26.4853 26.4853C24.2348 28.7357 21.1826 30 18 30C14.8174 30 11.7652 28.7357 9.51472 26.4853C7.26428 24.2348 6 21.1826 6 18C6 14.8174 7.26428 11.7652 9.51472 9.51472C11.7652 7.26428 14.8174 6 18 6C21.1826 6 24.2348 7.26428 26.4853 9.51472C28.7357 11.7652 30 14.8174 30 18ZM18 33C26.2845 33 33 26.2845 33 18C33 9.7155 26.2845 3 18 3C9.7155 3 3 9.7155 3 18C3 26.2845 9.7155 33 18 33ZM18.537 14.073C17.079 14.68 14.1635 15.9365 9.7905 17.8425C9.0795 18.1245 8.7075 18.4005 8.6745 18.6705C8.6175 19.1265 9.189 19.3065 9.9675 19.551L10.2945 19.656C11.0595 19.905 12.0915 20.196 12.627 20.208C13.113 20.218 13.655 20.018 14.253 19.608C18.339 16.848 20.448 15.4535 20.58 15.4245C20.6745 15.4035 20.8035 15.3765 20.8905 15.4545C20.979 15.5325 20.97 15.6795 20.961 15.72C20.904 15.9615 18.66 18.048 17.499 19.1265C17.155 19.4505 16.8135 19.777 16.4745 20.106C15.7635 20.7915 15.2295 21.306 16.5045 22.146C17.796 22.998 19.0995 23.847 20.3595 24.7455C20.9805 25.1895 21.5385 25.5855 22.2285 25.524C22.629 25.4865 23.043 25.11 23.253 23.985C23.751 21.33 24.7275 15.573 24.9525 13.2C24.9656 13.0032 24.957 12.8055 24.927 12.6105C24.9093 12.4536 24.8333 12.309 24.714 12.2055C24.534 12.0585 24.2565 12.0285 24.1335 12.03C23.5695 12.0405 22.704 12.3405 18.5385 14.073" fill="#D5D5D5"/>
</svg>
