<?xml version="1.0" encoding="UTF-8" standalone="no"?>
<svg
   width="20"
   height="20"
   viewBox="0 0 20 20"
   fill="none"
   version="1.1"
   id="svg1"
   sodipodi:docname="three-circles-blacksvg.svg"
   inkscape:version="1.3.2 (091e20e, 2023-11-25, custom)"
   xmlns:inkscape="http://www.inkscape.org/namespaces/inkscape"
   xmlns:sodipodi="http://sodipodi.sourceforge.net/DTD/sodipodi-0.dtd"
   xmlns="http://www.w3.org/2000/svg"
   xmlns:svg="http://www.w3.org/2000/svg">
  <sodipodi:namedview
     id="namedview1"
     pagecolor="#ffffff"
     bordercolor="#000000"
     borderopacity="0.25"
     inkscape:showpageshadow="2"
     inkscape:pageopacity="0.0"
     inkscape:pagecheckerboard="0"
     inkscape:deskcolor="#d1d1d1"
     inkscape:zoom="38.85"
     inkscape:cx="9.98713"
     inkscape:cy="10"
     inkscape:window-width="1920"
     inkscape:window-height="991"
     inkscape:window-x="-9"
     inkscape:window-y="-9"
     inkscape:window-maximized="1"
     inkscape:current-layer="svg1" />
  <g
     clip-path="url(#clip0_1213_1006)"
     id="g1">
    <path
       d="M9.24178 5.8783L9.33344 5.49497C9.34844 5.44413 9.36428 5.39413 9.38094 5.34413L9.69011 4.6433C10.0094 4.06916 10.46 3.57867 11.005 3.21186C11.5501 2.84505 12.1741 2.61232 12.8262 2.53266C13.4783 2.453 14.1401 2.52868 14.7574 2.7535C15.3747 2.97833 15.93 3.34594 16.3782 3.82633C16.8263 4.30671 17.1545 4.88626 17.336 5.51767C17.5175 6.14908 17.5471 6.81445 17.4224 7.45947C17.2977 8.1045 17.0222 8.71089 16.6185 9.22916C16.2147 9.74744 15.6942 10.1629 15.0993 10.4416L14.6559 10.6191C14.6236 10.6298 14.5911 10.6401 14.5584 10.65L14.1326 10.7566C13.4632 10.8877 12.7719 10.8524 12.1193 10.6538C11.4667 10.4553 10.8729 10.0995 10.3899 9.61787C9.90694 9.13621 9.5496 8.54334 9.34926 7.89131C9.14893 7.23929 9.11174 6.54806 9.24094 5.8783M7.89178 4.55913C7.13539 4.85323 6.44845 5.30144 5.8746 5.87529C5.30075 6.44914 4.85254 7.13608 4.55844 7.89247C3.29001 8.38511 2.23364 9.30558 1.57205 10.4947C0.910453 11.6837 0.685245 13.0667 0.935376 14.4042C1.18551 15.7418 1.89524 16.9499 2.94183 17.8195C3.98842 18.6891 5.30603 19.1657 6.66678 19.1666C7.84352 19.1668 8.99282 18.8111 9.9638 18.1463C10.9348 17.4816 11.6821 16.5387 12.1076 15.4416C12.2172 15.3986 12.3256 15.3525 12.4326 15.3033L12.7143 15.1908L12.7059 15.1691C13.9572 14.5121 14.9287 13.4247 15.4409 12.1075C15.5509 12.065 15.6601 12.0191 15.7676 11.97L16.0476 11.8575L16.0393 11.8358C16.874 11.398 17.5902 10.7645 18.1266 9.98942C18.6629 9.21437 19.0035 8.32088 19.1191 7.38545C19.2347 6.45002 19.122 5.5005 18.7905 4.61817C18.4589 3.73585 17.9186 2.94699 17.2156 2.31914C16.5126 1.69128 15.6679 1.24313 14.7539 1.01303C13.8398 0.782939 12.8837 0.77776 11.9672 0.997938C11.0507 1.21812 10.2012 1.65709 9.49148 2.2773C8.78173 2.8975 8.23283 3.68045 7.89178 4.55913ZM13.3334 12.5C12.9227 13.0467 12.3842 13.4845 11.7651 13.775L11.3234 13.9516L11.2234 13.985L10.8009 14.09C10.1315 14.2213 9.44007 14.1862 8.78735 13.9878C8.13463 13.7895 7.54061 13.4339 7.05744 12.9523C6.57428 12.4707 6.21675 11.8778 6.01627 11.2257C5.81578 10.5736 5.77847 9.88233 5.90761 9.21247L6.00011 8.8283C6.01511 8.77747 6.03094 8.72747 6.04761 8.67747L6.35761 7.9758C6.6426 7.46401 7.03182 7.01773 7.50011 6.6658C7.50011 8.2129 8.11469 9.69746 9.20865 10.7914C10.3026 11.8854 11.7863 12.5 13.3334 12.5ZM4.16678 9.99997C4.16678 11.5471 4.78136 13.0308 5.87532 14.1248C6.96928 15.2187 8.45301 15.8333 10.0001 15.8333C9.64193 16.3109 9.18531 16.7059 8.66117 16.9916C8.13703 17.2774 7.55761 17.4472 6.96215 17.4895C6.36668 17.5318 5.76908 17.4457 5.2098 17.2369C4.65051 17.0282 4.14262 16.7017 3.7205 16.2796C3.29838 15.8575 2.97189 15.3496 2.76315 14.7903C2.5544 14.231 2.46827 13.6334 2.51059 13.0379C2.55291 12.4425 2.72269 11.863 3.00843 11.3389C3.29417 10.8148 3.6892 10.3581 4.16678 9.99997Z"
       fill="#FAFAFA"
       id="path1" />
  </g>
  <defs
     id="defs1">
    <clipPath
       id="clip0_1213_1006">
      <rect
         width="20"
         height="20"
         fill="white"
         id="rect1" />
    </clipPath>
  </defs>
  <path
     style="fill:#1a1a1a;stroke-width:0.02574"
     d="M 6.1389961,19.137562 C 5.3820507,19.059201 4.6558512,18.847674 4.0170924,18.519497 1.7002163,17.329146 0.45562929,14.766223 0.95378615,12.211365 1.2490472,10.697083 2.1516268,9.3382772 3.4234234,8.4934013 3.7199256,8.2964299 4.1435578,8.0660973 4.3954628,7.9648947 L 4.5438216,7.9052919 4.7320144,7.5176394 C 5.0604996,6.8410031 5.3894909,6.37314 5.882445,5.8815959 6.3759228,5.3895297 6.8596288,5.0495655 7.5165187,4.7331169 L 7.9042517,4.546331 7.9643745,4.3967176 C 8.0661094,4.1435552 8.2961004,3.7204216 8.4934013,3.4234234 9.1115434,2.4929305 10.042462,1.7249517 11.065115,1.3018392 c 1.595979,-0.66032044 3.338543,-0.60372926 4.867961,0.158091 0.581732,0.2897673 1.067537,0.6433578 1.536572,1.1183846 0.325513,0.3296715 0.479832,0.5185054 0.722195,0.8837187 1.223569,1.8437796 1.282763,4.2663979 0.150846,6.1735536 -0.458217,0.7720439 -1.069699,1.4149559 -1.791852,1.8839509 -0.516641,0.335528 -0.537668,0.347405 -0.821191,0.463842 l -0.274496,0.11273 -0.201916,0.412692 c -0.31639,0.646667 -0.653926,1.125603 -1.13483,1.610234 -0.358119,0.360894 -0.823646,0.716309 -1.248391,0.953106 -0.08494,0.04736 -0.160232,0.09376 -0.16731,0.103112 -0.0071,0.0094 -0.144505,0.0724 -0.305392,0.140108 l -0.292521,0.123097 -0.05324,0.131478 c -0.104991,0.259283 -0.357595,0.726561 -0.543633,1.005639 -0.905199,1.357895 -2.3455309,2.268315 -3.9918305,2.5232 -0.3121809,0.04833 -1.0768378,0.06987 -1.3770914,0.03879 z M 7.2329472,17.462028 C 8.0809815,17.354714 8.9453228,16.93198 9.5763266,16.315921 9.761051,16.135572 10,15.863645 10,15.833776 c 0,-0.0091 -0.097862,-0.01653 -0.2174718,-0.01653 -0.6969617,0 -1.604843,-0.228536 -2.3436608,-0.589957 -1.1759338,-0.575253 -2.0909034,-1.490223 -2.6661562,-2.666156 -0.3616983,-0.739385 -0.589957,-1.646659 -0.589957,-2.34494 0,-0.2552301 0.014507,-0.254409 -0.2666101,-0.01509 -0.682948,0.581404 -1.1960154,1.49691 -1.3583576,2.423825 -0.060644,0.346255 -0.072002,0.951858 -0.023907,1.274687 0.1664909,1.117533 0.7523422,2.109548 1.6339019,2.766665 0.8970126,0.668635 1.9367004,0.938549 3.0651657,0.795749 z m 3.2567888,-3.319071 c 1.013574,-0.125128 1.979267,-0.634611 2.643543,-1.394688 0.102325,-0.117082 0.186302,-0.219858 0.186615,-0.22839 3.13e-4,-0.0085 -0.123948,-0.0234 -0.276136,-0.03304 -1.483385,-0.09394 -2.81165,-0.684211 -3.829019,-1.70158 C 8.1973704,9.7678924 7.6071019,8.4396273 7.5131591,6.956242 7.503521,6.8040541 7.4900739,6.6795367 7.4832762,6.6795367 c -0.039478,0 -0.458044,0.3871614 -0.6106893,0.5648695 C 6.574801,7.5910852 6.3868257,7.8939457 6.1917658,8.3413261 5.9073704,8.9936026 5.8121954,9.486174 5.838948,10.16731 c 0.041515,1.056993 0.4673122,2.030466 1.215294,2.778448 0.6496468,0.649647 1.5279233,1.081887 2.4309575,1.196385 0.2462198,0.03122 0.7549125,0.03163 1.0045365,8.14e-4 z m 3.422748,-3.347872 C 15.245906,10.609739 16.434237,9.7588945 17.062117,8.5399485 17.232946,8.2083079 17.414411,7.6107272 17.4668,7.2072921 17.510494,6.8708095 17.482735,6.1120651 17.416214,5.8246443 17.211366,4.9395434 16.838581,4.2716407 16.212344,3.6677212 15.632767,3.1087986 14.949016,2.7503797 14.118404,2.5700877 13.779723,2.4965737 12.863926,2.5025416 12.507988,2.5805822 11.477535,2.8065125 10.656753,3.3198908 10.027901,4.1318147 9.8133547,4.4088193 9.69826,4.6093761 9.5168311,5.022373 8.6863936,6.9127465 9.3747534,9.1195354 11.134004,10.206812 c 0.84453,0.521948 1.800104,0.724267 2.77848,0.588273 z"
     id="path2" />
</svg>
