<?xml version="1.0" encoding="UTF-8" standalone="no"?>
<svg
   width="20"
   height="21"
   viewBox="0 0 20 21"
   fill="none"
   version="1.1"
   id="svg1"
   sodipodi:docname="two-stars-blacksvg.svg"
   inkscape:version="1.3.2 (091e20e, 2023-11-25, custom)"
   xmlns:inkscape="http://www.inkscape.org/namespaces/inkscape"
   xmlns:sodipodi="http://sodipodi.sourceforge.net/DTD/sodipodi-0.dtd"
   xmlns="http://www.w3.org/2000/svg"
   xmlns:svg="http://www.w3.org/2000/svg">
  <defs
     id="defs1" />
  <sodipodi:namedview
     id="namedview1"
     pagecolor="#ffffff"
     bordercolor="#000000"
     borderopacity="0.25"
     inkscape:showpageshadow="2"
     inkscape:pageopacity="0.0"
     inkscape:pagecheckerboard="0"
     inkscape:deskcolor="#d1d1d1"
     inkscape:zoom="45.254834"
     inkscape:cx="8.7062522"
     inkscape:cy="11.921378"
     inkscape:window-width="1920"
     inkscape:window-height="991"
     inkscape:window-x="-9"
     inkscape:window-y="-9"
     inkscape:window-maximized="1"
     inkscape:current-layer="svg1" />
  <path
     d="M8.33333 6.33333L7.90333 7.495C7.34 9.01833 7.05833 9.78 6.5025 10.3358C5.94667 10.8917 5.185 11.1733 3.66167 11.7367L2.5 12.1667L3.66167 12.5967C5.185 13.16 5.94667 13.4425 6.5025 13.9975C7.05833 14.5525 7.34 15.315 7.90333 16.8383L8.33333 18L8.76333 16.8383C9.32667 15.315 9.60917 14.5533 10.1642 13.9975C10.7192 13.4417 11.4817 13.16 13.005 12.5967L14.1667 12.1667L13.005 11.7367C11.4817 11.1733 10.72 10.8917 10.1642 10.3358C9.60833 9.78 9.32667 9.01833 8.76333 7.495L8.33333 6.33333ZM15 3L14.8158 3.4975C14.5742 4.15083 14.4533 4.4775 14.2158 4.715C13.9775 4.95333 13.6508 5.07417 12.9975 5.315L12.5 5.5L12.9983 5.68417C13.6508 5.92583 13.9775 6.04667 14.215 6.28417C14.4533 6.5225 14.5742 6.84917 14.815 7.5025L15 8L15.1842 7.5025C15.4258 6.84917 15.5467 6.5225 15.7842 6.285C16.0225 6.04667 16.3492 5.92583 17.0025 5.685L17.5 5.5L17.0017 5.31583C16.3492 5.07417 16.0225 4.95333 15.785 4.71583C15.5467 4.4775 15.4258 4.15083 15.185 3.4975L15 3Z"
     stroke="#151515"
     stroke-width="1.5"
     stroke-linecap="round"
     stroke-linejoin="round"
     id="path1" />
  <path
     style="fill:#000000;stroke-width:0.0220971"
     d="M 8.1863575,18.718745 C 7.9742213,18.674107 7.7827438,18.531391 7.687261,18.346747 7.6671875,18.30793 7.4826146,17.823309 7.2770986,17.269813 6.5356713,15.272997 6.344933,14.871773 5.9628364,14.505221 5.5551504,14.114121 5.2304766,13.963281 3.1046407,13.177332 2.6124281,12.995355 2.1688118,12.822658 2.1188267,12.793562 1.7475839,12.577462 1.6547173,12.060503 1.9237721,11.707754 2.0309858,11.567189 2.1627014,11.506365 3.1625457,11.135709 5.2313846,10.368762 5.6108914,10.189074 5.9907116,9.7966308 6.3740738,9.4005283 6.546452,9.034272 7.2734961,7.0710678 7.4850353,6.4998581 7.6854411,5.9879378 7.7188421,5.9334671 7.8896537,5.6549069 8.275978,5.5280551 8.5926639,5.6465426 8.7245141,5.695874 8.8891321,5.828239 8.9566714,5.9392315 c 0.023821,0.039147 0.1941709,0.4788674 0.378555,0.9771567 0.7702276,2.0815012 0.9500446,2.4707206 1.3252556,2.8685543 0.367026,0.3891565 0.812527,0.6004525 2.851887,1.3526225 0.516519,0.190506 0.979732,0.36967 1.029362,0.398143 0.117175,0.06722 0.243259,0.208017 0.302441,0.337727 0.06714,0.147159 0.06779,0.437627 0.0013,0.582155 -0.05972,0.129807 -0.21143,0.296 -0.321436,0.35212 -0.04627,0.0236 -0.548872,0.215441 -1.116896,0.426302 -1.953951,0.725343 -2.327442,0.901915 -2.714833,1.283463 -0.380312,0.374578 -0.563469,0.761682 -1.3018113,2.751398 -0.2142189,0.577287 -0.4079498,1.079443 -0.4305129,1.115903 -0.1096877,0.177246 -0.3445994,0.3256 -0.5520402,0.348631 -0.05469,0.0061 -0.1544032,-5.26e-4 -0.2215841,-0.01466 z m 0.3299661,-3.306027 c 0.5942655,-1.512519 1.1559229,-2.180191 2.3002004,-2.734372 0.139764,-0.06769 0.471938,-0.210516 0.738164,-0.317393 0.427056,-0.171444 0.477789,-0.196955 0.430893,-0.216676 -0.02923,-0.01229 -0.23214,-0.09343 -0.450902,-0.180308 C 10.440268,11.529348 9.8808081,11.166622 9.3982866,10.578837 9.1061708,10.222996 8.8124917,9.6702602 8.5114154,8.9096508 8.4209963,8.6812249 8.3427532,8.4900672 8.3375418,8.4848558 8.3323304,8.4796444 8.2455503,8.6814538 8.144697,8.9333212 7.7118941,10.014189 7.3932873,10.528518 6.8642976,11.00028 6.4791799,11.343734 5.885649,11.67155 5.0765713,11.98767 c -0.2332914,0.09115 -0.4243839,0.170996 -0.4246504,0.177435 -2.662e-4,0.0064 0.1959037,0.08932 0.4359334,0.184189 1.0023658,0.396157 1.5193895,0.706408 1.988011,1.192947 0.4043831,0.419845 0.7036618,0.939329 1.0683869,1.85449 0.1006325,0.252505 0.189378,0.451379 0.197212,0.441942 0.00783,-0.0094 0.086521,-0.201117 0.1748594,-0.425955 z"
     id="path9" />
  <path
     style="fill:#f9f9f9;stroke-width:0.0220971"
     d="M 14.805048,8.7099652 C 14.607402,8.644798 14.452874,8.5247797 14.369643,8.3717956 14.33748,8.3126788 14.224513,8.0306338 14.118606,7.745029 13.791871,6.8639103 13.751637,6.7979248 13.457126,6.6601559 13.359899,6.6146741 13.028756,6.483187 12.721253,6.3679624 12.413751,6.2527375 12.121046,6.1301224 12.070798,6.0954838 11.749744,5.8741643 11.669704,5.3771345 11.905372,5.0682294 c 0.12148,-0.1592323 0.242073,-0.2234279 0.844647,-0.4496353 0.652319,-0.2448815 0.824854,-0.3214317 0.927397,-0.4114656 0.09863,-0.086594 0.191059,-0.2864057 0.44357,-0.9588567 0.118656,-0.3159884 0.244869,-0.6172844 0.280473,-0.6695467 0.234304,-0.3439295 0.717917,-0.4124258 1.061519,-0.1503478 0.130156,0.099274 0.199718,0.2369504 0.424373,0.8399068 0.117307,0.3148418 0.246728,0.6388478 0.287602,0.7200134 0.13306,0.2642208 0.215391,0.3122235 1.103502,0.6433878 0.303028,0.1129952 0.595786,0.236337 0.650574,0.2740927 0.05479,0.037756 0.132576,0.1164799 0.172865,0.174942 0.214726,0.3115892 0.168866,0.6996742 -0.113139,0.9574109 -0.10926,0.099858 -0.161953,0.1242861 -0.722702,0.3350475 -0.66631,0.2504369 -0.924979,0.3723819 -0.99324,0.468245 -0.08035,0.1128374 -0.210921,0.4170319 -0.419539,0.9773897 -0.188764,0.5070307 -0.212604,0.5579119 -0.312724,0.6674595 -0.142168,0.1555545 -0.30298,0.2345217 -0.498813,0.2449436 -0.08547,0.00455 -0.185748,-0.00446 -0.236689,-0.021251 z m 0.375651,-2.8522716 c 0.06077,-0.071957 0.171939,-0.176413 0.247049,-0.232126 0.07511,-0.055713 0.137257,-0.1112396 0.138106,-0.123393 8.49e-4,-0.012153 -0.06446,-0.070948 -0.145129,-0.1306547 -0.08249,-0.061055 -0.205774,-0.1844385 -0.281737,-0.2819666 l -0.135066,-0.1734087 -0.05433,0.072044 c -0.07324,0.09712 -0.369328,0.3918182 -0.463668,0.4614974 l -0.07606,0.056177 0.08611,0.058513 c 0.118457,0.080493 0.308494,0.2676538 0.416372,0.4100693 l 0.08993,0.1187173 0.03397,-0.05232 c 0.01868,-0.028776 0.08369,-0.1111932 0.144456,-0.1831495 z"
     id="path10" />
  <path
     style="fill:#1a1a1a;stroke-width:0.0220971"
     d="M 8.1759222,18.70753 C 7.9596664,18.649336 7.7786729,18.504828 7.6926047,18.321642 7.6632381,18.259139 7.4732072,17.765505 7.2703139,17.224679 6.5297769,15.250727 6.3584113,14.890468 5.9821974,14.516686 5.5946881,14.131682 5.3022322,13.99146 3.3815071,13.269751 2.1544052,12.80867 2.1201115,12.794031 1.9966388,12.678596 1.7488944,12.446979 1.7099637,12.02618 1.9106492,11.749142 2.0370502,11.574651 2.0963842,11.547077 3.3992827,11.05735 5.2598909,10.357995 5.6149663,10.186963 5.9831445,9.8127641 6.3639869,9.4256934 6.5443113,9.0476737 7.2593763,7.1373591 7.7361691,5.8635947 7.7527064,5.8309394 7.9845428,5.7054012 8.3701765,5.4965827 8.8311392,5.6626449 9.0007319,6.0714843 c 0.03648,0.087942 0.2259949,0.5847844 0.4211449,1.1040947 0.7227162,1.9232052 0.8837392,2.2595967 1.2648072,2.6422858 0.36646,0.3680182 0.728039,0.5404792 2.648908,1.2634432 0.58944,0.221849 1.117525,0.426494 1.173523,0.454766 0.141621,0.0715 0.298568,0.252252 0.339909,0.391462 0.0434,0.146158 0.04249,0.356946 -0.0021,0.487875 -0.03801,0.111557 -0.218755,0.327587 -0.31576,0.377407 -0.03165,0.01625 -0.50004,0.19577 -1.040866,0.398922 -2.137268,0.802828 -2.458773,0.958129 -2.854027,1.378625 -0.355004,0.377675 -0.505591,0.701159 -1.2562006,2.698508 -0.3963122,1.054575 -0.431403,1.134672 -0.54389,1.241471 C 8.660032,18.67756 8.3777936,18.761854 8.1759222,18.70753 Z M 8.475234,15.54001 c 0.4793601,-1.206064 0.8625536,-1.813378 1.446358,-2.292298 0.362516,-0.297387 0.743631,-0.504377 1.543992,-0.838566 0.289753,-0.120986 0.532552,-0.225703 0.539554,-0.232705 0.02386,-0.02387 -0.02857,-0.0491 -0.45941,-0.221055 C 10.655383,11.600028 10.135318,11.299054 9.7184086,10.897874 9.2337698,10.431519 8.9590878,9.975887 8.5303848,8.9272231 8.435985,8.6963086 8.3513036,8.499306 8.3422041,8.4894394 c -0.0091,-0.00987 -0.093428,0.1691198 -0.1873977,0.3977475 -0.2128617,0.5178932 -0.4743279,1.0611448 -0.636117,1.3216671 -0.486826,0.783916 -1.1369356,1.248284 -2.5192235,1.799459 -0.191416,0.07633 -0.3480291,0.146512 -0.3480291,0.155972 0,0.0095 0.1715286,0.08727 0.3811747,0.172925 1.0416366,0.425555 1.4540918,0.661036 1.8996656,1.084567 0.4849151,0.460925 0.7523243,0.897738 1.1880532,1.940685 0.1128514,0.270117 0.2126668,0.486497 0.2218123,0.480845 0.00915,-0.0057 0.069037,-0.142136 0.1330914,-0.303297 z"
     id="path2" />
  <path
     style="fill:#1a1a1a;stroke-width:0.0220971"
     d="M 14.730677,8.6616745 C 14.561179,8.58277 14.45811,8.4937826 14.388869,8.3665628 14.355665,8.3055567 14.235548,8.0139724 14.121942,7.7185978 13.778676,6.8261077 13.761261,6.7972728 13.485238,6.6644156 13.384703,6.6160249 13.118488,6.5059695 12.89365,6.4198483 12.668812,6.3337269 12.395522,6.2262586 12.286339,6.1810299 11.958288,6.0451367 11.813849,5.8590152 11.793812,5.5463688 c -0.01176,-0.183532 0.01484,-0.2954831 0.103426,-0.4351606 0.08889,-0.1401631 0.246501,-0.2404788 0.587616,-0.3740013 1.215898,-0.4759379 1.199677,-0.467343 1.32226,-0.7006204 0.04535,-0.086302 0.172197,-0.3884718 0.28188,-0.6714878 0.259926,-0.6706867 0.328894,-0.8122292 0.443615,-0.9104266 0.221311,-0.189434 0.544624,-0.2209311 0.810916,-0.078999 0.219814,0.1171598 0.25759,0.1828464 0.566401,0.9848742 0.114921,0.298466 0.241195,0.6031684 0.280609,0.6771166 0.116515,0.2186042 0.209166,0.2717919 1.008327,0.5788458 0.627484,0.241092 0.705908,0.2780204 0.806941,0.3799773 0.336728,0.3398079 0.258546,0.8931629 -0.158243,1.1200078 -0.06104,0.033222 -0.340805,0.1495602 -0.621701,0.2585293 -0.610253,0.2367372 -0.804552,0.324785 -0.905514,0.4103379 -0.09537,0.080815 -0.206454,0.315534 -0.443715,0.9375701 -0.09967,0.261298 -0.207121,0.528237 -0.238788,0.593198 -0.162213,0.3327625 -0.587025,0.4945757 -0.907165,0.3455444 z m 0.412648,-2.7314072 c 0.0628,-0.080537 0.183909,-0.203476 0.269129,-0.2731965 0.08522,-0.069721 0.154944,-0.1398304 0.154944,-0.1557995 0,-0.015969 -0.02735,-0.050108 -0.06077,-0.075864 -0.09998,-0.077049 -0.345117,-0.3246359 -0.41519,-0.4193413 -0.03598,-0.048631 -0.07537,-0.088068 -0.08752,-0.087639 -0.01215,4.295e-4 -0.0756,0.06506 -0.141002,0.1436235 -0.0654,0.078564 -0.196992,0.209731 -0.292434,0.2914834 l -0.173529,0.1486404 0.07146,0.055167 c 0.13004,0.1003866 0.346408,0.3147564 0.439565,0.4355046 0.05047,0.065425 0.09838,0.111056 0.106463,0.1014031 0.0081,-0.00965 0.06607,-0.083445 0.128877,-0.1639822 z"
     id="path3" />
</svg>
